<mxfile host="app.diagrams.net" agent="Mozilla/5.0 (Windows NT 10.0; Win64; x64) AppleWebKit/537.36 (KHTML, like Gecko) Chrome/126.0.0.0 Safari/537.36 Edg/126.0.0.0" version="24.7.6">
  <diagram name="Page-1" id="KO4kyHjszz_fl1TxYeWL">
    <mxGraphModel dx="1386" dy="785" grid="1" gridSize="10" guides="1" tooltips="1" connect="1" arrows="1" fold="1" page="1" pageScale="1" pageWidth="827" pageHeight="1169" math="0" shadow="0">
      <root>
        <mxCell id="0" />
        <mxCell id="1" parent="0" />
        <mxCell id="LGEl6Xe1ORTqU_-lCO3t-93" value="" style="shape=ext;double=1;rounded=0;whiteSpace=wrap;html=1;fillColor=#dae8fc;strokeColor=#6c8ebf;" vertex="1" parent="1">
          <mxGeometry x="50" y="40" width="680" height="500" as="geometry" />
        </mxCell>
        <mxCell id="LGEl6Xe1ORTqU_-lCO3t-2" value="&lt;b&gt;&lt;font style=&quot;font-size: 20px;&quot;&gt;Repository (/)&amp;nbsp;&lt;/font&gt;&lt;/b&gt;" style="text;strokeColor=none;align=center;fillColor=none;html=1;verticalAlign=middle;whiteSpace=wrap;rounded=0;" vertex="1" parent="1">
          <mxGeometry x="70" y="50" width="140" height="30" as="geometry" />
        </mxCell>
        <mxCell id="LGEl6Xe1ORTqU_-lCO3t-95" value="" style="rounded=0;whiteSpace=wrap;html=1;fillColor=#ffe6cc;strokeColor=#d79b00;" vertex="1" parent="1">
          <mxGeometry x="80" y="105" width="630" height="415" as="geometry" />
        </mxCell>
        <mxCell id="LGEl6Xe1ORTqU_-lCO3t-47" value="" style="rounded=0;whiteSpace=wrap;html=1;rotation=90;fillColor=#f8cecc;strokeColor=#b85450;" vertex="1" parent="1">
          <mxGeometry x="340" y="155" width="340" height="350" as="geometry" />
        </mxCell>
        <mxCell id="LGEl6Xe1ORTqU_-lCO3t-48" value="" style="rounded=0;whiteSpace=wrap;html=1;rotation=-90;fillColor=#e1d5e7;strokeColor=#9673a6;" vertex="1" parent="1">
          <mxGeometry x="40" y="227.5" width="340" height="205" as="geometry" />
        </mxCell>
        <mxCell id="LGEl6Xe1ORTqU_-lCO3t-49" value="&lt;span style=&quot;font-size: 20px;&quot;&gt;&lt;b&gt;Project (/1/)&lt;/b&gt;&lt;/span&gt;" style="text;strokeColor=none;align=center;fillColor=none;html=1;verticalAlign=middle;whiteSpace=wrap;rounded=0;" vertex="1" parent="1">
          <mxGeometry x="110" y="120" width="120" height="30" as="geometry" />
        </mxCell>
        <mxCell id="LGEl6Xe1ORTqU_-lCO3t-50" value="&lt;span style=&quot;font-size: 20px;&quot;&gt;&lt;b&gt;Parking-Lot (/1/1/)&lt;/b&gt;&lt;/span&gt;" style="text;strokeColor=none;align=center;fillColor=none;html=1;verticalAlign=middle;whiteSpace=wrap;rounded=0;" vertex="1" parent="1">
          <mxGeometry x="115" y="170" width="185" height="30" as="geometry" />
        </mxCell>
        <mxCell id="LGEl6Xe1ORTqU_-lCO3t-57" value="&lt;span style=&quot;font-size: 20px;&quot;&gt;&lt;b&gt;Itemz Type 1 (/1/2/)&lt;/b&gt;&lt;/span&gt;" style="text;strokeColor=none;align=center;fillColor=none;html=1;verticalAlign=middle;whiteSpace=wrap;rounded=0;" vertex="1" parent="1">
          <mxGeometry x="340" y="170" width="185" height="30" as="geometry" />
        </mxCell>
        <mxCell id="LGEl6Xe1ORTqU_-lCO3t-61" value="&lt;span style=&quot;font-size: 20px;&quot;&gt;&lt;b&gt;Itemz 1 (/1/2/1/)&lt;/b&gt;&lt;/span&gt;" style="text;strokeColor=none;align=center;fillColor=none;html=1;verticalAlign=middle;whiteSpace=wrap;rounded=0;" vertex="1" parent="1">
          <mxGeometry x="370" y="255" width="185" height="30" as="geometry" />
        </mxCell>
        <mxCell id="LGEl6Xe1ORTqU_-lCO3t-69" value="&lt;span style=&quot;font-size: 20px;&quot;&gt;&lt;b&gt;Itemz 1_1 (/1/2/1/1/)&lt;/b&gt;&lt;/span&gt;" style="text;strokeColor=none;align=center;fillColor=none;html=1;verticalAlign=middle;whiteSpace=wrap;rounded=0;" vertex="1" parent="1">
          <mxGeometry x="450" y="340" width="185" height="30" as="geometry" />
        </mxCell>
        <mxCell id="LGEl6Xe1ORTqU_-lCO3t-72" value="&lt;span style=&quot;font-size: 20px;&quot;&gt;&lt;b&gt;Itemz 1_2 (/1/2/1/2/)&lt;/b&gt;&lt;/span&gt;" style="text;strokeColor=none;align=center;fillColor=none;html=1;verticalAlign=middle;whiteSpace=wrap;rounded=0;" vertex="1" parent="1">
          <mxGeometry x="450" y="385" width="185" height="30" as="geometry" />
        </mxCell>
        <mxCell id="LGEl6Xe1ORTqU_-lCO3t-76" value="&lt;b style=&quot;font-size: 20px;&quot;&gt;Itemz 2 (/1/2/2/)&lt;/b&gt;" style="text;html=1;align=center;verticalAlign=middle;whiteSpace=wrap;rounded=0;" vertex="1" parent="1">
          <mxGeometry x="390" y="440" width="160" height="30" as="geometry" />
        </mxCell>
        <mxCell id="LGEl6Xe1ORTqU_-lCO3t-85" value="" style="edgeStyle=segmentEdgeStyle;endArrow=classic;html=1;curved=0;rounded=0;endSize=8;startSize=8;" edge="1" parent="1" target="LGEl6Xe1ORTqU_-lCO3t-72">
          <mxGeometry width="50" height="50" relative="1" as="geometry">
            <mxPoint x="410" y="304.99" as="sourcePoint" />
            <mxPoint x="450" y="385.0000000000001" as="targetPoint" />
            <Array as="points">
              <mxPoint x="410" y="400" />
            </Array>
          </mxGeometry>
        </mxCell>
        <mxCell id="LGEl6Xe1ORTqU_-lCO3t-87" value="" style="edgeStyle=segmentEdgeStyle;endArrow=classic;html=1;curved=0;rounded=0;endSize=8;startSize=8;entryX=0.018;entryY=0.667;entryDx=0;entryDy=0;entryPerimeter=0;" edge="1" parent="1">
          <mxGeometry width="50" height="50" relative="1" as="geometry">
            <mxPoint x="410" y="290" as="sourcePoint" />
            <mxPoint x="449.99999999999994" y="360.01" as="targetPoint" />
            <Array as="points">
              <mxPoint x="410" y="283" />
              <mxPoint x="410" y="360" />
            </Array>
          </mxGeometry>
        </mxCell>
        <mxCell id="LGEl6Xe1ORTqU_-lCO3t-88" value="" style="edgeStyle=segmentEdgeStyle;endArrow=classic;html=1;curved=0;rounded=0;endSize=8;startSize=8;" edge="1" parent="1">
          <mxGeometry width="50" height="50" relative="1" as="geometry">
            <mxPoint x="360" y="200" as="sourcePoint" />
            <mxPoint x="380" y="270" as="targetPoint" />
            <Array as="points">
              <mxPoint x="360" y="270" />
            </Array>
          </mxGeometry>
        </mxCell>
        <mxCell id="LGEl6Xe1ORTqU_-lCO3t-91" value="" style="edgeStyle=segmentEdgeStyle;endArrow=classic;html=1;curved=0;rounded=0;endSize=8;startSize=8;entryX=0;entryY=0.5;entryDx=0;entryDy=0;" edge="1" parent="1" target="LGEl6Xe1ORTqU_-lCO3t-76">
          <mxGeometry width="50" height="50" relative="1" as="geometry">
            <mxPoint x="360" y="200" as="sourcePoint" />
            <mxPoint x="380" y="404.98" as="targetPoint" />
            <Array as="points">
              <mxPoint x="360" y="455" />
            </Array>
          </mxGeometry>
        </mxCell>
      </root>
    </mxGraphModel>
  </diagram>
</mxfile>
